<svg width="100%" height="100%" viewBox="0 0 24 24" fill="none" xmlns="http://www.w3.org/2000/svg" fit="" preserveAspectRatio="xMidYMid meet" focusable="false">
  <g clip-path="url('/auth/prijava#clip0_30275_312229')">
    <path d="M19.033 10.9827L23 1M15.6667 1L14.0096 7.11784M4.96698 10.9804L1 1M8.33333 1L9.9904 7.11784M12.0012 22.9976C16.4548 22.9976 20.0681 19.3867 20.0681 14.9307C20.0681 10.4747 16.4572 6.86382 12.0012 6.86382C7.54516 6.86382 3.93428 10.4794 3.93428 14.9331C3.93428 19.3867 7.54516 23 12.0012 23V22.9976Z" stroke="#52AE30" stroke-width="1.43153" stroke-linecap="round" stroke-linejoin="round"></path>
    <path d="M11.1827 19.1221H13.2933V11.375H12.4398L9.85742 12.5568V14.3075L10.458 14.0352C10.7425 13.916 10.9516 13.8163 11.1802 13.685L11.1899 13.6972C11.1899 14.0814 11.1802 14.5069 11.1802 14.823V19.1221H11.1827Z" fill="#52AE30"></path>
  </g>
  <defs>
    <clipPath id="clip0_30275_312229">
      <rect width="24" height="24" fill="white"></rect>
    </clipPath>
  </defs>
</svg>